# xmcd
#
# Track frame offsets:
#	150
#	19766
#	36731
#	62251
#	81134
#	99648
#	116651
#	133236
#	156307
#	174267
#	201573
#	223453
#	242352
#
# Disc length: 3605 seconds
#
# Revision: 1
# Processed by: cddbd v1.5.2PL0 Copyright (c) Steve Scherf et al.
# Submitted via: audiograbber 1.83.01
#
DISCID=bd0e130d
DTITLE=Robert Charels - Three Dogs and Old Skool Cats
DYEAR=2007
DGENRE=Blues
TTITLE0=Good people
TTITLE1=Ride with me tonight
TTITLE2=Don't even know
TTITLE3=Three leg dog
TTITLE4=Playin' on me
TTITLE5=We hardly make love
TTITLE6=Clarence loves Suzette
TTITLE7=Mean ole world
TTITLE8=Hey Shellena
TTITLE9=Old Skool cats
TTITLE10=Need a friend
TTITLE11=It takes a big man to cry
TTITLE12=Mud on the tracks (medley)
EXTD=
EXTT0=
EXTT1=
EXTT2=
EXTT3=
EXTT4=
EXTT5=
EXTT6=
EXTT7=
EXTT8=
EXTT9=
EXTT10=
EXTT11=
EXTT12=
PLAYORDER=
